<svg xmlns="http://www.w3.org/2000/svg"  viewBox="0 0 55.931 52.57">
  <g transform="translate(-252.861 -7.813)">
    <path d="M11.545,14.68a.874.874,0,0,1-.359-.07,1.111,1.111,0,0,1-.305-.2L8.23,11.75a.884.884,0,0,1-.2-.3.939.939,0,0,1-.071-.36.915.915,0,0,1,.274-.66A2.814,2.814,0,0,0,4.252,6.45a.925.925,0,0,1-1.326,0L.274,3.8a1,1,0,0,1-.2-.3A.988.988,0,0,1,0,3.14a.913.913,0,0,1,.071-.36.935.935,0,0,1,.2-.31A8.585,8.585,0,0,1,3.012.64,8.466,8.466,0,0,1,9.47.64a8.439,8.439,0,0,1,4.567,4.57,8.45,8.45,0,0,1,0,6.46,8.5,8.5,0,0,1-1.83,2.74,1.1,1.1,0,0,1-.3.2A.883.883,0,0,1,11.545,14.68ZM6.231,3.755h0a4.758,4.758,0,0,1,.482.025A4.688,4.688,0,0,1,10.9,7.97a4.739,4.739,0,0,1-.752,3.06L11.5,12.37A6.567,6.567,0,0,0,6.712,1.89c-.152-.011-.306-.016-.458-.016A6.651,6.651,0,0,0,2.311,3.18L3.657,4.53A4.633,4.633,0,0,1,6.231,3.755Z" transform="translate(294.114 17.873)"/>
    <path d="M10.314,17.88A10.3,10.3,0,0,1,.2,5.56,10.246,10.246,0,0,1,3.023.28a.784.784,0,0,1,.3-.2.845.845,0,0,1,.718,0,.784.784,0,0,1,.3.2L17.607,13.54a.884.884,0,0,1,.2.3.97.97,0,0,1,.071.36.923.923,0,0,1-.071.36.882.882,0,0,1-.2.3,10.259,10.259,0,0,1-7.293,3.02ZM3.722,2.3A8.441,8.441,0,0,0,9.844,16c.15.008.3.012.451.012a8.472,8.472,0,0,0,5.285-1.852L14.244,12.83a6.6,6.6,0,0,1-3.907,1.3c-.163,0-.328-.006-.491-.019A6.562,6.562,0,0,1,5.06,3.64Zm7.309,7.31h0l-.292,2.63a4.69,4.69,0,0,0,2.161-.76L11.031,9.61ZM9.252,8.63l-3.4.38A4.668,4.668,0,0,0,7,10.89a4.775,4.775,0,0,0,1.876,1.14ZM6.4,4.99a4.658,4.658,0,0,0-.753,2.16l2.623-.29Z" transform="translate(252.862 7.813)"/>
    <path d="M8.666,14.721H8.59a4.706,4.706,0,0,1-3.3-1.461A4.819,4.819,0,0,1,4.3,11.71L2.037,13.97a.917.917,0,0,1-.662.28.933.933,0,0,1-.664-.28.93.93,0,0,1,0-1.319L2.978,10.38A4.685,4.685,0,0,1,.2,4.68,4.675,4.675,0,0,1,1.375,2.7,4.73,4.73,0,0,1,6.417,1.66c.092-.111.187-.208.26-.28a4.672,4.672,0,0,1,6.629,0A4.655,4.655,0,0,1,14.68,4.69a4.73,4.73,0,0,1-1.373,3.32c-.06.06-.121.114-.185.172l-.1.088a4.7,4.7,0,0,1,.346,1.81,4.638,4.638,0,0,1-.377,1.8,4.8,4.8,0,0,1-1.042,1.52,4.57,4.57,0,0,1-1.546.99A4.678,4.678,0,0,1,8.666,14.721ZM7.957,5.79a.93.93,0,0,1,.937.94.931.931,0,0,1-.275.66L5.86,10.15a2.786,2.786,0,0,0,.536,1.5,2.831,2.831,0,0,0,2.276,1.16,2.882,2.882,0,0,0,.581-.06,2.827,2.827,0,0,0,1.778-4.28.919.919,0,0,1-.138-.35.945.945,0,0,1,.015-.38.877.877,0,0,1,.167-.34.8.8,0,0,1,.286-.25,2.821,2.821,0,0,0,1.417-2.07,2.822,2.822,0,0,0-1.892-3.06,3.057,3.057,0,0,0-.914-.145A2.667,2.667,0,0,0,9.6,1.9a2.787,2.787,0,0,0-1.2.47,2.85,2.85,0,0,0-.869.95.979.979,0,0,1-.247.29.89.89,0,0,1-.343.16A1.059,1.059,0,0,1,6.7,3.8a.874.874,0,0,1-.135-.01A.922.922,0,0,1,6.21,3.65a2.9,2.9,0,0,0-1.544-.443c-.092,0-.184,0-.275.013a2.866,2.866,0,0,0-1.69.81A2.8,2.8,0,0,0,4.535,8.82L7.294,6.06A.952.952,0,0,1,7.957,5.79Z" transform="translate(274.927 10.512)"/>
    <path d="M33.749,33.75H16.875a.966.966,0,0,1-.664-.27.955.955,0,0,1-.274-.67V30H14.063A14.073,14.073,0,0,1,0,15.94V12.19a.921.921,0,0,1,.274-.66.922.922,0,0,1,.663-.28H2.514A16.45,16.45,0,0,1,.937,4.69a.925.925,0,0,1,.237-.62.873.873,0,0,1,.591-.31,26.312,26.312,0,0,1,3.072-.191A13.545,13.545,0,0,1,12.671,5.65,3.7,3.7,0,0,1,15,3.87V3.75a3.75,3.75,0,0,1,7.5,0v.12a3.63,3.63,0,0,1,.843.33,8.441,8.441,0,0,1,3.324-2.57A8.257,8.257,0,0,1,29.989.939c.276,0,.555.014.829.041a8.448,8.448,0,0,1,6.714,4.6,4.715,4.715,0,0,1,4.306-1.79,4.6,4.6,0,0,1,2.236.91,4.674,4.674,0,0,1,1.488,1.9,4.681,4.681,0,0,1,4.126,4.65.948.948,0,0,1,.938.94v3.75A14.075,14.075,0,0,1,36.562,30H34.687V32.81a.928.928,0,0,1-.938.94ZM17.812,30v1.88h15V30ZM1.874,13.13v2.81a12.215,12.215,0,0,0,12.19,12.19h22.5A12.209,12.209,0,0,0,48.75,15.94V13.13ZM41.25,5.63a2.818,2.818,0,0,0-2.726,2.11.975.975,0,0,1-.183.36,8.425,8.425,0,0,1-.115,3.15h9.586A2.807,2.807,0,0,0,45,8.44h-.126a.95.95,0,0,1-.9-.7A2.814,2.814,0,0,0,41.25,5.63ZM30,4.68a4.691,4.691,0,0,1,4.295,6.57h2a6.527,6.527,0,0,0,.171-3.02,6.564,6.564,0,0,0-12.922,0,6.538,6.538,0,0,0,.17,3.02h2A4.7,4.7,0,0,1,30,4.68Zm0,1.88a2.814,2.814,0,0,0-2.1,4.69h4.191a2.771,2.771,0,0,0,.683-1.44,2.8,2.8,0,0,0-.21-1.58A2.842,2.842,0,0,0,30,6.56ZM15.9,5.63a1.835,1.835,0,0,0-1.224.48,1.878,1.878,0,0,0-.6,1.21c0,.062-.007.123-.007.18a1.846,1.846,0,0,0,.221.89,1.893,1.893,0,0,0,.617.67,1.036,1.036,0,0,1,.307.339.968.968,0,0,1,.111.45.956.956,0,0,1-.111.44,1.03,1.03,0,0,1-.307.34,1.872,1.872,0,0,0-.589.62h7.459a8.419,8.419,0,0,1,.585-5.44,1.807,1.807,0,0,0-.8-.18.948.948,0,0,1-.937-.941V3.75a1.875,1.875,0,0,0-3.75,0v.94a.916.916,0,0,1-.275.66.931.931,0,0,1-.662.281ZM4.826,5.444c-.164,0-.332,0-.5.006l7.251,5.8h.728a3.731,3.731,0,0,1,.7-1.4,3.737,3.737,0,0,1-.821-2.2C10.476,6.187,8,5.444,4.826,5.444ZM3.047,6.83a13.237,13.237,0,0,0,1.6,4.42H8.577Z" transform="translate(255.677 26.632)"/>
  </g>
</svg>
