<svg xmlns="http://www.w3.org/2000/svg" viewBox="0 0 50.002 49.998">
  <path d="M44.167,50H5.834a.835.835,0,0,1,0-1.67H16.265a23.257,23.257,0,0,1-14.51-18.45A2.5,2.5,0,0,1,2.5,25H6.329a4.873,4.873,0,0,1-1.3-2.84,5.015,5.015,0,0,1,4.187-5.43,6.672,6.672,0,0,1,6.623-5.89h.833a4.187,4.187,0,0,0,4.286-2.55c1.327-2.764.847-4.988-1.467-6.8a.84.84,0,0,1-.255-.98.83.83,0,0,1,.874-.5c5.312.67,8.551,2.139,9.9,4.49a5.866,5.866,0,0,1,.3,4.83,4.164,4.164,0,0,1,2.948,3.19A7.213,7.213,0,0,1,37.7,13.962a4.239,4.239,0,0,1,1.415,2.765,5,5,0,0,1,4.189,5.43A4.87,4.87,0,0,1,42,25h5.5a2.5,2.5,0,0,1,.746,4.88,23.256,23.256,0,0,1-14.512,18.45H44.167a.835.835,0,0,1,0,1.67ZM25,48.327h.1A21.7,21.7,0,0,0,46.55,30H3.451A21.706,21.706,0,0,0,24.9,48.328ZM2.5,26.667a.835.835,0,0,0,0,1.67h45a.835.835,0,0,0,0-1.67ZM10.179,25H38.233a3.462,3.462,0,0,0,3.418-3,3.339,3.339,0,0,0-3.317-3.669.815.815,0,0,1-.59-.24.842.842,0,0,1-.244-.59c0-1.43-.518-3.33-5-3.33a.83.83,0,0,1-.59-.249.805.805,0,0,1-.244-.59,2.519,2.519,0,0,0-2.5-2.5h-.028a.791.791,0,0,1-.667-.37.814.814,0,0,1-.071-.779c.76-1.789.813-3.212.161-4.351-.862-1.5-2.97-2.6-6.264-3.28A5.986,5.986,0,0,1,23.349,5.3a8.163,8.163,0,0,1-.892,3.709,5.8,5.8,0,0,1-5.79,3.49h-.833a5.009,5.009,0,0,0-5,5,.845.845,0,0,1-.244.59.779.779,0,0,1-.557.241H10A3.339,3.339,0,0,0,6.683,22,3.461,3.461,0,0,0,10.1,25Z" transform="translate(0.001 0)"/>
</svg>
