<svg xmlns="http://www.w3.org/2000/svg" viewBox="0 0 20.887 20.929">
  <path d="M19.886,14.92v3a1.888,1.888,0,0,1-.17.809,2,2,0,0,1-1.19,1.094,1.988,1.988,0,0,1-.82.1,19.788,19.788,0,0,1-8.63-3.07,19.518,19.518,0,0,1-6-6A19.813,19.813,0,0,1,.006,2.18a2.069,2.069,0,0,1,.1-.819,1.984,1.984,0,0,1,.42-.71A1.945,1.945,0,0,1,1.186.17,2.029,2.029,0,0,1,2,0H5a2.008,2.008,0,0,1,1.33.484A2.038,2.038,0,0,1,7,1.72a12.947,12.947,0,0,0,.7,2.81,1.95,1.95,0,0,1,.08,1.121,1.912,1.912,0,0,1-.53.989L5.976,7.91a16.079,16.079,0,0,0,6,6l1.27-1.27a2,2,0,0,1,2.11-.45,12.933,12.933,0,0,0,2.81.7,2,2,0,0,1,1.25.687A2.045,2.045,0,0,1,19.886,14.92Z" transform="translate(0.5 0.5)" stroke-miterlimit="10" stroke-width="1"/>
</svg>
