<svg viewBox="0 0 512 512" xmlns="http://www.w3.org/2000/svg"><g><g><path d="m467 282h-24.239c11.802-38.409 9.755-80.201-6.222-119.874-16.352-40.602-46.033-75.62-79.4-93.676-10.745-5.815-23.563 2.969-22.018 15.089 3.437 26.964 3.809 54.138-14.075 73.144-38.067-46.377-7.059-135.666-6.724-136.61 4.207-11.779-7.003-23.23-18.869-19.275-37.296 12.432-68.187 37.125-86.982 69.531-18.551 31.984-24.969 71.015-19.001 114.2-14.293-10.941-24.583-26.998-30.72-48.008-7.41-25.363-5.809-48.636-5.794-48.837 1.122-14.455-16.878-21.934-26.33-10.94-.863 1.004-21.321 25.054-36.53 64.652-17.651 45.955-20.949 94.162-9.793 140.604h-35.303c-24.813 0-45 20.187-45 45v140c0 24.813 20.187 45 45 45h422c24.813 0 45-20.187 45-45v-140c0-24.813-20.186-45-45-45zm-349.294-128.812c2.878-7.605 5.989-14.576 9.1-20.835.795 3.781 1.742 7.671 2.868 11.615 11.992 42.022 38.311 70.381 76.11 82.012 11.234 3.457 21.898-6.764 18.922-18.135-22.457-85.8 9.019-139.543 52.803-165.968-8.218 40.046-13.334 107.992 33.084 146.674 5.17 4.308 12.577 4.646 18.117.826l.001-.001c18.732-12.917 30.714-31.136 35.61-54.15 1.638-7.698 2.385-15.447 2.571-22.948 17.338 15.945 32.374 37.604 41.818 61.056 10.519 26.119 18.978 65.516 2.362 108.667h-299.786c-11.934-42.697-9.793-85.977 6.42-128.813zm364.294 313.812c0 8.271-6.729 15-15 15h-422c-8.271 0-15-6.729-15-15v-140c0-8.271 6.729-15 15-15h422c8.271 0 15 6.729 15 15z"/><path d="m436.002 434.416c-.024 0-.048 0-.071 0-7.707.043-15.963.074-22.447.083v-87.499c0-6.903-5.597-12.5-12.5-12.5s-12.5 5.597-12.5 12.5v99.916c0 6.088 4.387 11.291 10.387 12.32.891.152 1.575.271 12.721.271 5.353 0 13.119-.027 24.479-.091 6.904-.039 12.469-5.666 12.431-12.57-.041-6.879-5.629-12.43-12.5-12.43z"/><path d="m250.709 423.306c-5.29-4.437-13.175-3.742-17.609 1.549-.873 1.041-1.812 2.01-2.792 2.883-5.038 4.487-11.474 6.763-19.128 6.763-20.677 0-37.499-16.822-37.499-37.5s16.822-37.5 37.499-37.5c7.517 0 14.764 2.212 20.957 6.396 5.722 3.864 13.491 2.36 17.355-3.359 3.865-5.72 2.361-13.49-3.359-17.355-10.342-6.988-22.429-10.682-34.953-10.682-34.462 0-62.499 28.037-62.499 62.5s28.037 62.5 62.499 62.5c13.773 0 26.138-4.527 35.753-13.091 1.883-1.677 3.675-3.524 5.325-5.494 4.435-5.291 3.742-13.175-1.549-17.61z"/><path d="m97.432 394.985 40.821-37.521c5.083-4.672 5.416-12.579.744-17.662-4.672-5.083-12.579-5.416-17.662-.744l-32.835 30.181v-22.239c0-6.903-5.597-12.5-12.5-12.5s-12.5 5.597-12.5 12.5v100c0 6.903 5.597 12.5 12.5 12.5s12.5-5.597 12.5-12.5v-25.893l36.164 34.889c4.968 4.793 12.882 4.651 17.675-.317 4.793-4.968 4.651-12.881-.317-17.675z"/></g><path d="m370.421 442.587-37.208-98.595c-.044-.116-.09-.231-.137-.346-2.288-5.558-7.646-9.146-13.655-9.146-.006 0-.014 0-.02 0-6.016.008-11.374 3.611-13.649 9.18-.038.093-.074.186-.11.279l-37.549 98.592c-2.457 6.451.781 13.673 7.232 16.13 6.452 2.457 13.674-.781 16.131-7.233l6.285-16.504h43.075l6.215 16.468c2.438 6.459 9.65 9.719 16.109 7.281 6.458-2.436 9.718-9.648 7.281-16.106zm-63.159-32.642 12.115-31.81 12.004 31.81z"/></g></svg>