<svg xmlns="http://www.w3.org/2000/svg" viewBox="0 0 55.001 51.009">
  <g transform="translate(-660.989 -7.133)">
    <path d="M31.787,51.008a26.585,26.585,0,0,1-9.71-1.92c-.4-.159-.747-.307-1.06-.45a13.409,13.409,0,1,1-8.62-24.42,8.206,8.206,0,0,1,.3-1.42,6.291,6.291,0,0,1-4.122-1.84,6.386,6.386,0,0,1-1.643-6.141,1.075,1.075,0,0,1,.76-.76,6.5,6.5,0,0,1,1.644-.22,6.341,6.341,0,0,1,6.222,5.1,5.552,5.552,0,0,1,1.614-.73,1.058,1.058,0,0,1,.286-.04,1.073,1.073,0,0,1,.275,2.11,4.7,4.7,0,0,0-3.165,3.96,13.05,13.05,0,0,1,3.9.93,15.3,15.3,0,0,1,3.222-3.7l.067-.061c1.346-1.207,2.319-2.08,2.451-3.59.451-4.991,1.867-8.466,4.209-10.33a7.05,7.05,0,0,1,4.5-1.54h.047a6.889,6.889,0,0,1,4.75-5.91,1.072,1.072,0,0,1,1.21,1.573,1.059,1.059,0,0,1-.65.5,4.744,4.744,0,0,0-3.18,4.11,7.066,7.066,0,0,1,4.07,2.68c1.761,2.411,2.208,6.146,1.33,11.1-.272,1.54.523,2.767,1.53,4.32.395.617.842,1.316,1.249,2.09a24.4,24.4,0,0,0,1.98-4.639,1.1,1.1,0,0,1,.7-.71c.533-.158.649-.343.79-2.111.029-.447.069-.984.15-1.57a1.136,1.136,0,0,1,.28-.6,4.966,4.966,0,0,1,3.38-1.39,4.1,4.1,0,0,1,.5.03,1.092,1.092,0,0,1,.9.87l.03.18.006.034A6.844,6.844,0,0,0,54.3,20.969a1.1,1.1,0,0,1,.37.62,27.839,27.839,0,0,1-.319,10.26,27.278,27.278,0,0,1-8.69,14.279A21.674,21.674,0,0,1,31.787,51.008Zm-16.2-9.99a3.855,3.855,0,0,0-1.014,1.17c5.364,4.3,11.478,6.671,17.213,6.671,9.88,0,17.54-6.568,20.49-17.571a26.081,26.081,0,0,0,.339-8.95,8.465,8.465,0,0,1-2.61-4.74,2.984,2.984,0,0,0-1.04.46c-.039.351-.07.7-.09,1.05-.11,1.488-.223,3.027-1.73,3.78a27.361,27.361,0,0,1-3.14,6.43.184.184,0,0,1-.032.055l-.018.025a28.423,28.423,0,0,1-6.19,6.691A25.9,25.9,0,0,1,21.7,41.769a25.42,25.42,0,0,1-6.109-.751h0Zm-2.177-14.69a11.265,11.265,0,0,0,0,22.531,11.133,11.133,0,0,0,5.316-1.33,37,37,0,0,1-6.155-4.21,1.065,1.065,0,0,1-.324-1.17,6.171,6.171,0,0,1,2.487-3.17,1.042,1.042,0,0,1,.616-.2,1.134,1.134,0,0,1,.285.037,24.307,24.307,0,0,0,4.591.76,6.928,6.928,0,0,0,.291-1.98,7.131,7.131,0,0,0-.53-2.7,1.057,1.057,0,0,1,0-.815,1.072,1.072,0,0,1,.584-.584,1.052,1.052,0,0,1,.408-.082,1.064,1.064,0,0,1,.992.672,9.2,9.2,0,0,1,.689,3.51,9.079,9.079,0,0,1-.22,2.011,20.777,20.777,0,0,0,2.09-.17,11.275,11.275,0,0,0-11.116-13.11ZM32.927,8.089a4.92,4.92,0,0,0-3.18,1.081c-1.861,1.482-3.008,4.456-3.41,8.84-.211,2.355-1.705,3.695-3.15,4.99l-.035.032a13.964,13.964,0,0,0-2.775,3.108,13.575,13.575,0,0,1,4.673,4.8A13.378,13.378,0,0,1,26.827,37.6a13.961,13.961,0,0,1-.08,1.44A25.774,25.774,0,0,0,41.907,28.6a17.264,17.264,0,0,0-1.695-3.111l-.005-.008,0,0c-1.11-1.72-2.257-3.5-1.837-5.856.779-4.356.463-7.535-.94-9.45a5.089,5.089,0,0,0-3.611-2.021A6.875,6.875,0,0,0,32.927,8.089Zm-23.6,7.9a3.208,3.208,0,0,0-.446.031,4.2,4.2,0,0,0,4.177,4.649,3.383,3.383,0,0,0,.448-.03,4.2,4.2,0,0,0-4.179-4.65Z" transform="translate(660.989 7.134)"/>
    <path d="M1.494.085a1.073,1.073,0,1,0-.83,1.98c.78.32,1.21,2.68.52,6.56a1.075,1.075,0,0,0,.87,1.24,1.366,1.366,0,0,0,.19.02A1.081,1.081,0,0,0,3.3,9C3.914,5.535,4.1,1.175,1.494.085Z" transform="translate(694.143 17.417)"/>
    <path d="M1.948.427A1.081,1.081,0,0,0,.438.217h0a1.071,1.071,0,0,0-.23,1.5,1.053,1.053,0,0,0,.86.44,1.067,1.067,0,0,0,.64-.21l.02-.01A1.083,1.083,0,0,0,1.948.427Z" transform="translate(700.788 47.815)"/>
    <path d="M9.381.588a1.07,1.07,0,0,0-1.44-.47,15.627,15.627,0,0,1-6.83,1.81,1.071,1.071,0,1,0-.08,2.14c.02,0,.07.01.17.01a17.73,17.73,0,0,0,7.71-2.05A1.067,1.067,0,0,0,9.381.588Z" transform="translate(690.886 49.395)"/>
    <path d="M1.866.346l-.04-.04a1.084,1.084,0,0,0-1.52.01,1.084,1.084,0,0,0,.01,1.52l.02.02a1.085,1.085,0,0,0,.76.32,1.1,1.1,0,0,0,.76-.31A1.074,1.074,0,0,0,1.866.346Z" transform="translate(679.11 37.876)"/>
  </g>
</svg>
