<svg xmlns="http://www.w3.org/2000/svg" viewBox="0 0 65 60.672">
  <g transform="translate(-451.989 0)">
    <path d="M1.664,8.67h0a1.1,1.1,0,0,1-.94-.55A5.408,5.408,0,0,1,5.391,0a1.087,1.087,0,0,1,.941.56,5.424,5.424,0,0,1,.009,5.4A5.411,5.411,0,0,1,1.664,8.67ZM4.729,2.25h0a3.21,3.21,0,0,0-2.4,4.17,3.209,3.209,0,0,0,2.4-4.17Z" transform="translate(484.212 10.833)"/>
    <path d="M3.792,9.745A3.777,3.777,0,0,1,1.46,2.985L.318,1.845A1.08,1.08,0,0,1,1.083,0a1.079,1.079,0,0,1,.765.315l1.858,1.86a.249.249,0,0,0,.042,0,.243.243,0,0,1,.043-.005,3.79,3.79,0,1,1,0,7.58Zm0-5.41a1.625,1.625,0,1,0,1.625,1.62A1.624,1.624,0,0,0,3.792,4.335Z" transform="translate(462.822 17.338)"/>
    <path d="M3.792,9.752a3.79,3.79,0,1,1,0-7.58h.086L5.734.322a1.073,1.073,0,0,1,1.533,0,1.086,1.086,0,0,1,0,1.53L6.125,2.993a3.778,3.778,0,0,1-2.334,6.76Zm0-5.42a1.625,1.625,0,1,0,1.626,1.63A1.629,1.629,0,0,0,3.792,4.333Z" transform="translate(499.655)"/>
    <path d="M61.712,44.636H3.288A3.273,3.273,0,0,1,0,41.386v-2.17a1.083,1.083,0,0,1,1.083-1.08h12.23l-2-3.25H8.666a3.245,3.245,0,0,1-1.042-6.32,17.266,17.266,0,0,1,3-8.176,16.265,16.265,0,0,1,6.4-5.724l10.418-4.81L26.632,8.6l-1.742.2h-.122a1.076,1.076,0,0,1-1.074-.96,1.089,1.089,0,0,1,.956-1.2l.665-.07-1.039-1.6-1.742.19a.5.5,0,0,0-.061,0,.494.494,0,0,1-.06,0,1.084,1.084,0,0,1-1.075-.97,1.072,1.072,0,0,1,.234-.8,1.059,1.059,0,0,1,.722-.391l.667-.08-.814-1.25a1.088,1.088,0,0,1,.319-1.5A1.069,1.069,0,0,1,23.055,0a1.084,1.084,0,0,1,.912.5l.813,1.26.341-.581A1.072,1.072,0,0,1,26.6.8a1.066,1.066,0,0,1,.5.658,1.083,1.083,0,0,1-.115.823L26.1,3.785l1.037,1.6.34-.57a1.083,1.083,0,1,1,1.867,1.1l-.891,1.51.981,1.51.931-.43A17.437,17.437,0,0,1,37.72,6.9a18.13,18.13,0,0,1,8.112,1.925l.908-1.4-.89-1.51a1.083,1.083,0,1,1,1.867-1.1l.341.57,1.038-1.6L48.2,2.276a1.084,1.084,0,0,1-.115-.823A1.1,1.1,0,0,1,49.142.641a1.08,1.08,0,0,1,.929.534l.34.581L51.225.5a1.081,1.081,0,0,1,.911-.5,1.066,1.066,0,0,1,.586.176,1.086,1.086,0,0,1,.321,1.5l-.814,1.25.666.08a1.06,1.06,0,0,1,.723.392,1.071,1.071,0,0,1,.234.8,1.083,1.083,0,0,1-1.076.97.488.488,0,0,1-.059,0,.513.513,0,0,0-.062-.005l-1.741-.19-1.039,1.6.665.07a1.091,1.091,0,0,1,.957,1.2,1.077,1.077,0,0,1-1.074.96H50.3l-1.744-.2L47.7,9.926a17.1,17.1,0,0,1,3.517,3.119l.234-.04a4.361,4.361,0,0,1,.773-2.15,4.293,4.293,0,0,1,2.8-1.78,4.423,4.423,0,0,1,.763-.067,4.318,4.318,0,0,1,4.05,5.817,4.324,4.324,0,0,1-2.557,7.05,3.839,3.839,0,0,1-.755.07A4.29,4.29,0,0,1,55.1,21.7c.061.461.1.877.123,1.271.012.205.022,2.029.03,5.42h1.084a3.254,3.254,0,0,1,3.25,3.25,3.254,3.254,0,0,1-3.25,3.25H53.81l-1.333,3.25h11.44A1.083,1.083,0,0,1,65,39.216v2.17A3.273,3.273,0,0,1,61.712,44.636ZM2.167,40.3v1.09a1.1,1.1,0,0,0,1.121,1.08H61.712a1.1,1.1,0,0,0,1.122-1.08V40.3Zm11.69-5.41,2,3.25H50.136l1.945-4.75a1.076,1.076,0,0,1,1-.67h3.249a1.083,1.083,0,0,0,1.084-1.08,1.094,1.094,0,0,0-1.084-1.09H8.666a1.085,1.085,0,0,0,0,2.17h9.75a1.085,1.085,0,0,1,0,2.17H13.857ZM37.732,9.066a15.337,15.337,0,0,0-6.464,1.41l-13.338,6.16c-4.077,1.878-7.647,7.04-8.127,11.75H53.081c0-2.355-.015-5.052-.026-5.3a14.7,14.7,0,0,0-.68-3.641l-5.133.9a8.634,8.634,0,0,1-2.934,3.7,11.729,11.729,0,0,1-4.975,2.1,12.584,12.584,0,0,1-2.186.19,10.786,10.786,0,0,1-4.857-1.1,6.82,6.82,0,0,1-3.875-4.87c-.727-4.111,2.989-8.22,8.285-9.16a12.412,12.412,0,0,1,2.14-.188,9.769,9.769,0,0,1,7.274,2.928l2.566-.45A15.325,15.325,0,0,0,43.622,10.2,15.752,15.752,0,0,0,37.732,9.066Zm1.159,4.12a10.318,10.318,0,0,0-1.816.16,8.824,8.824,0,0,0-5.683,3.308A4.427,4.427,0,0,0,30.548,20a4.739,4.739,0,0,0,2.72,3.309,8.72,8.72,0,0,0,3.89.869,10.415,10.415,0,0,0,1.8-.159c4.117-.73,7.046-3.717,6.529-6.66a4.5,4.5,0,0,0-2.2-3.022A8.411,8.411,0,0,0,38.891,13.186ZM53.329,17.1a1.081,1.081,0,0,1,1.066.89,2.167,2.167,0,1,0,3.461-2.07,1.083,1.083,0,0,1-.252-1.43,2.157,2.157,0,0,0,.306-1.52,2.188,2.188,0,0,0-.891-1.4,2.182,2.182,0,0,0-3.012.53,2.16,2.16,0,0,0-.365,1.63,1.081,1.081,0,0,1-.877,1.25l-1.351.239a1.041,1.041,0,0,1-.539.151,1.1,1.1,0,0,1-.208-.02l-3.211.57.211,1.06v.01l.163,1.07,4.828-.86a.036.036,0,0,0,.023-.013l.007-.007a1.075,1.075,0,0,1,.391-.073l.073,0A1.066,1.066,0,0,1,53.329,17.1Z" transform="translate(451.989 16.037)"/>
    <path d="M3.25,0H1.083a1.085,1.085,0,0,0,0,2.17H3.25A1.085,1.085,0,0,0,3.25,0Z" transform="translate(473.656 48.752)"/>
    <path d="M10.72.6A1.084,1.084,0,0,0,9.266.116L6.129,1.686a3.227,3.227,0,0,0-1.8,2.9v3a1.084,1.084,0,0,1-2.167,0V6.506A1.083,1.083,0,1,0,0,6.506v1.08a3.25,3.25,0,0,0,6.5,0v-3a1.063,1.063,0,0,1,.6-.96l3.136-1.57A1.09,1.09,0,0,0,10.72.6Z" transform="translate(468.239 31.417)"/>
  </g>
</svg>
