<svg xmlns="http://www.w3.org/2000/svg" viewBox="0 0 24.06 55">
  <g transform="translate(-877.986 -5.132)">
    <path d="M12.92,55H11.2a4.305,4.305,0,0,1-2.589-.93v.07H4.31a4.278,4.278,0,0,1-3.036-1.273A4.26,4.26,0,0,1,0,49.84V42.95a4.244,4.244,0,0,1,1.65-3.34,3.823,3.823,0,0,1-.12-6.13,3.817,3.817,0,0,1,.12-6.14A4.269,4.269,0,0,1,0,24V15.98L7.83,5.92H6.03V0H17.98V5.92h-1.7l7.73,10.06V24a4.219,4.219,0,0,1-1.6,3.34,3.788,3.788,0,0,1,.17,6.13,3.873,3.873,0,0,1,1.47,3.02,3.832,3.832,0,0,1-1.64,3.12,4.22,4.22,0,0,1,1.6,3.34v6.89a4.256,4.256,0,0,1-4.2,4.3H15.5v-.07A4.267,4.267,0,0,1,12.92,55ZM6.95,50.7H8.56a2.7,2.7,0,0,0,.772,1.889,2.59,2.59,0,0,0,1.867.8H12.92a2.7,2.7,0,0,0,2.64-2.69h1.61a4.85,4.85,0,0,1-.391,1.831h3.03a2.64,2.64,0,0,0,2.58-2.69V42.95a2.558,2.558,0,0,0-2.58-2.59H18.09V38.75h2.15a2.205,2.205,0,0,0,0-4.41H18.09V32.72h2.15a2.205,2.205,0,0,0,0-4.41H18.09V26.69h1.72A2.64,2.64,0,0,0,22.39,24V17.12H1.62V24a2.726,2.726,0,0,0,2.69,2.69h8.61v1.62H3.88a2.205,2.205,0,1,0,0,4.41h9.04v1.62H3.88a2.205,2.205,0,1,0,0,4.41h9.04V40.36H4.31a2.645,2.645,0,0,0-2.69,2.59v6.89a2.726,2.726,0,0,0,2.69,2.69H7.34A4.853,4.853,0,0,1,6.95,50.7ZM9.87,5.92,2.5,15.5H21.61L14.24,5.92ZM7.64,1.62V4.31h8.72V1.62Z" transform="translate(877.986 5.132)"/>
    <path d="M0,1.614H1.722V0H0Z" transform="translate(884.016 17.188)"/>
    <path d="M0,1.614H1.722V0H0Z" transform="translate(885.736 15.468)"/>
    <path d="M0,1.615H1.721V0H0Z" transform="translate(892.626 37.858)"/>
    <path d="M0,1.614H1.721V0H0Z" transform="translate(892.626 31.828)"/>
    <path d="M0,1.615H1.721V0H0Z" transform="translate(892.626 43.878)"/>
  </g>
</svg>
