<svg xmlns="http://www.w3.org/2000/svg" viewBox="0 0 59.895 51.108">
  <path d="M30.275,51.108a17.8,17.8,0,0,1-6.49-1.17,14.432,14.432,0,0,1-6.82-5.27,11.316,11.316,0,0,1-1.67-3.68,17.924,17.924,0,0,1-1.79.1,16,16,0,0,1-6.189-1.223A13.108,13.108,0,0,1,2.486,36.4a.887.887,0,0,1,.09-1.239.881.881,0,0,1,1.239.09,11.319,11.319,0,0,0,4.219,3.013,14.208,14.208,0,0,0,5.448,1.062c.5,0,1.017-.025,1.523-.076v-.03a9.087,9.087,0,0,1,1.38-5.511,6.81,6.81,0,0,1,3.291-2.857,10.277,10.277,0,0,1,3.8-.576c.455,0,.913.012,1.356.024.491.014,1,.029,1.508.029a14.575,14.575,0,0,0,2.6-.2,13.752,13.752,0,0,0,1.448-5.338,11.249,11.249,0,0,0-.839-5.112,7.03,7.03,0,0,0-4.6-4.23,8.859,8.859,0,0,0-2.236-.32c-2.409,0-3.778,1.376-5.363,2.97a4.31,4.31,0,0,1,1.09,3.3c-.19,1.449-1.286,2.767-3.26,3.92a7.57,7.57,0,0,1-3.731,1.211,4.015,4.015,0,0,1-1.47-.27,4.464,4.464,0,0,1-2.36-2.61c-2.91.765-4.739,1.435-5.58,4.3A7.388,7.388,0,0,0,2.2,32.5a.9.9,0,0,1-.47,1.1.857.857,0,0,1-.343.071.908.908,0,0,1-.846-.58,9.132,9.132,0,0,1-.17-5.63c1.181-4.055,4.231-4.84,7.18-5.6l.15-.04a16.981,16.981,0,0,0,4.4-1.611,13.742,13.742,0,0,0,2.51-1.879,11.817,11.817,0,0,1-2.2-5.4,8.42,8.42,0,0,1,1.409-6.01c2.327-3.292,4.759-3.736,6.83-3.736.8,0,1.59.071,2.428.145h.012l.062.005c.866.076,1.762.155,2.689.155a13.3,13.3,0,0,0,2.309-.19A17.849,17.849,0,0,0,32.67,1.625l.015-.007.013-.006A12.293,12.293,0,0,1,37.913,0a6.851,6.851,0,0,1,3.873,1.268,9.513,9.513,0,0,1,4.14,8.28.874.874,0,0,1-.88.86h-.01a.871.871,0,0,1-.869-.89,7.782,7.782,0,0,0-3.351-6.791,5.237,5.237,0,0,0-2.926-.977,9.833,9.833,0,0,0-4.1,1.288,4.479,4.479,0,0,1-.13,3.52c-.713,1.346-2.254,2.231-4.58,2.63a12.482,12.482,0,0,1-1.35.16c-.13.006-.261.009-.387.009a4.725,4.725,0,0,1-3.283-1.069,4.308,4.308,0,0,1-1.3-3.22C22,5,21.318,4.943,20.659,4.943c-1.974,0-3.65.509-5.414,3-1.731,2.454-1.48,6.045.64,9.15a.539.539,0,0,1,.052-.056.555.555,0,0,0,.049-.053c1.839-1.856,3.577-3.609,6.7-3.609a10.858,10.858,0,0,1,2.706.379,8.2,8.2,0,0,1,4.16,2.63,8.055,8.055,0,0,1,4.919-1.873,13.065,13.065,0,0,1,4.734,1.2l.007,0c.776.307,1.54.6,2.35.851a12.851,12.851,0,0,0,2.06-3.85.872.872,0,0,1,.833-.6.909.909,0,0,1,.277.044.873.873,0,0,1,.56,1.11A14.44,14.44,0,0,1,43.425,17c.241.043.445.071.661.09a10.344,10.344,0,0,0,1.164.064,21.95,21.95,0,0,0,3.642-.4l.014,0a20.6,20.6,0,0,1,3.342-.37,6.754,6.754,0,0,1,5.5,2.58,9.547,9.547,0,0,1,1.53,9.509,13.5,13.5,0,0,1-4.119,5.852,16.96,16.96,0,0,1-6.9,3.437,15.138,15.138,0,0,1-4.51,8.291.883.883,0,0,1-.607.24.86.86,0,0,1-.633-.27.873.873,0,0,1-.249-.631.856.856,0,0,1,.268-.609,12.812,12.812,0,0,0,4.09-10.35A7.221,7.221,0,0,0,39.757,27.8a9.282,9.282,0,0,0-4.451,1.6,4.309,4.309,0,0,1,.13,3.47c-.577,1.343-1.994,2.309-4.21,2.87a9.573,9.573,0,0,1-2.4.34,4.46,4.46,0,0,1-2.849-.87,4.356,4.356,0,0,1-1.561-3.16c-.4-.01-.734-.016-1.025-.016a8.235,8.235,0,0,0-3.087.45,5.08,5.08,0,0,0-2.427,2.156c-1.691,2.682-1.489,6.061.54,9.04a12.866,12.866,0,0,0,6,4.63,16.135,16.135,0,0,0,5.85,1.047A19.694,19.694,0,0,0,33.955,49a17.884,17.884,0,0,0,5.9-2.19.869.869,0,0,1,1.2.3.883.883,0,0,1-.3,1.21,19.993,19.993,0,0,1-6.47,2.41A21.472,21.472,0,0,1,30.275,51.108Zm9.473-25.075a9.01,9.01,0,0,1,8.608,8.195,11.418,11.418,0,0,1,.08,1.66c4.452-1.252,7.885-4.242,9.18-8a7.832,7.832,0,0,0-1.21-7.79,4.946,4.946,0,0,0-4.114-1.967,17.176,17.176,0,0,0-2.716.3,4.531,4.531,0,0,1-1.111,3.34,5.174,5.174,0,0,1-3.849,1.319,11.963,11.963,0,0,1-1.291-.079c-2.266-.251-3.8-1.012-4.559-2.261a4.307,4.307,0,0,1-.35-3.46,10.869,10.869,0,0,0-3.924-1.02,6.338,6.338,0,0,0-3.916,1.54,9.223,9.223,0,0,1,.589,1.17,13.94,13.94,0,0,1-.01,10.53,23.851,23.851,0,0,0,3.029-1.5l.111-.062C36.05,26.963,37.708,26.033,39.748,26.033Zm-5.992,4.215a16.413,16.413,0,0,1-3.66,1.44,16.405,16.405,0,0,1-3.91.4,2.59,2.59,0,0,0,.87,1.731,2.817,2.817,0,0,0,1.781.5,8.171,8.171,0,0,0,1.958-.277c1.651-.421,2.67-1.05,3.03-1.87A2.539,2.539,0,0,0,33.755,30.248Zm-17.65-10.91h0a16.774,16.774,0,0,1-3.13,2.4A16.136,16.136,0,0,1,9.336,23.2a2.635,2.635,0,0,0,1.309,1.43,2.157,2.157,0,0,0,.806.144,6,6,0,0,0,2.855-.975c1.472-.861,2.279-1.745,2.4-2.63a2.618,2.618,0,0,0-.6-1.83Zm23.97-1.42h0a2.549,2.549,0,0,0,.18,1.91c.473.766,1.574,1.25,3.271,1.44a10,10,0,0,0,1.07.062,3.539,3.539,0,0,0,2.6-.792,2.563,2.563,0,0,0,.62-1.84,17.423,17.423,0,0,1-2.581.21,12.41,12.41,0,0,1-1.338-.071,16.542,16.542,0,0,1-3.82-.92ZM24.525,5.208h0a2.527,2.527,0,0,0,.71,1.78A3.035,3.035,0,0,0,27.3,7.6a8.79,8.79,0,0,0,1.475-.14c1.739-.3,2.887-.9,3.32-1.72a2.55,2.55,0,0,0,.079-1.94,15.157,15.157,0,0,1-3.72,1.23,14.98,14.98,0,0,1-2.642.22c-.4,0-.826-.013-1.289-.04Z" transform="translate(-0.001 0)"/>
</svg>
