<svg xmlns="http://www.w3.org/2000/svg" viewBox="0 0 61 46.095">
  <g transform="translate(-1058.72 -8.515)">
    <path d="M47.414,36.43a.891.891,0,0,1-.521-.165.906.906,0,0,1-.25-1.18,16.035,16.035,0,0,0,2.181-8.19c0-7.891-5.428-14.31-12.1-14.31a10.106,10.106,0,0,0-2.389.28A19.14,19.14,0,0,1,37.5,17.7a.916.916,0,0,1-.36,1.149.882.882,0,0,1-.441.117.891.891,0,0,1-.819-.517,17.07,17.07,0,0,0-3.76-5.29l-.06-.059a13.008,13.008,0,0,0-18.01,0,17.391,17.391,0,0,0-3.97,5.49.891.891,0,0,1-.819.517.882.882,0,0,1-.441-.117.907.907,0,0,1-.36-1.15,18.95,18.95,0,0,1,3.3-4.99,10.56,10.56,0,0,0-2.37-.27,11.062,11.062,0,0,0-7.87,3.44.909.909,0,0,1-.64.26.868.868,0,0,1-.62-.25.908.908,0,0,1-.01-1.27,12.849,12.849,0,0,1,9.14-3.97,12.078,12.078,0,0,1,3.859.63,15.089,15.089,0,0,1,6.491-3.35,18.467,18.467,0,0,1,3.209-6.91,3.342,3.342,0,0,1,.79-.7A3.13,3.13,0,0,1,25.395,0,3.205,3.205,0,0,1,27.4.7a3.168,3.168,0,0,1,.47,4.44,11.836,11.836,0,0,0-1.53,2.921,15.2,15.2,0,0,1,6.52,3.36,12.09,12.09,0,0,1,3.86-.63c7.659,0,13.891,7.222,13.891,16.1a17.914,17.914,0,0,1-2.42,9.1A.911.911,0,0,1,47.414,36.43ZM23.03,7.692c.5,0,1,.024,1.514.073a13.789,13.789,0,0,1,1.914-3.719l.015-.021a1.366,1.366,0,0,0,.3-1.017,1.372,1.372,0,0,0-1.358-1.219,1.372,1.372,0,0,0-1.072.505,16.321,16.321,0,0,0-2.67,5.46C22.118,7.712,22.575,7.692,23.03,7.692Z" transform="translate(1069.106 8.516)" />
    <path d="M33.44,28.754a14.5,14.5,0,0,1-6.241-1.41,20.027,20.027,0,0,1-7.43,1.41C8.869,28.754,0,20.141,0,9.554a.9.9,0,0,1,.9-.9H5.91A17.839,17.839,0,0,1,8.32.434.9.9,0,0,1,9.091,0,.914.914,0,0,1,9.55.124a.879.879,0,0,1,.413.545.891.891,0,0,1-.1.685,16.013,16.013,0,0,0-2.16,7.3H11.99a.9.9,0,0,1,.87.7,7.121,7.121,0,0,0,13.81,0,.906.906,0,0,1,.88-.7H38.64a.9.9,0,0,1,.89.9,18.738,18.738,0,0,1-2.794,9.837A19.65,19.65,0,0,1,29.42,26.3a12.509,12.509,0,0,0,4.02.66,13.245,13.245,0,0,0,9.01-3.62.137.137,0,0,1,.04-.03,17.035,17.035,0,0,0,3.79-5.331.9.9,0,0,1,.818-.519.91.91,0,0,1,.372.079.9.9,0,0,1,.43,1.191,18.815,18.815,0,0,1-3.18,4.85,10.1,10.1,0,0,0,2.389.28,11.046,11.046,0,0,0,7.88-3.451.894.894,0,1,1,1.27,1.26,12.83,12.83,0,0,1-9.15,3.981,12.1,12.1,0,0,1-3.859-.63A14.909,14.909,0,0,1,33.44,28.754ZM2.45,14.2h0A17.068,17.068,0,0,0,4.882,19.3,17.744,17.744,0,0,0,8.8,23.34,18.109,18.109,0,0,0,13.879,26a18.553,18.553,0,0,0,11.783,0,18.1,18.1,0,0,0,5.075-2.665,17.741,17.741,0,0,0,3.922-4.045,17.06,17.06,0,0,0,2.432-5.1,23.98,23.98,0,0,1-1.93,2.41,20.366,20.366,0,0,1-15.39,6.74,20.986,20.986,0,0,1-7.93-1.49.87.87,0,0,1-.488-.472.883.883,0,0,1,0-.688.9.9,0,0,1,.833-.562.876.876,0,0,1,.327.063,19.306,19.306,0,0,0,7.26,1.36,18.355,18.355,0,0,0,14.07-6.16,22.329,22.329,0,0,0,3.41-4.94H28.23a8.659,8.659,0,0,1-2.88,4.14,9.033,9.033,0,0,1-11.16,0,8.594,8.594,0,0,1-2.88-4.14H2.29a21.323,21.323,0,0,0,7.2,8.169.915.915,0,0,1,.31,1.15.9.9,0,0,1-.807.493.89.89,0,0,1-.483-.142A21.933,21.933,0,0,1,2.45,14.2Z" transform="translate(1058.72 25.856)"/>
  </g>
</svg>
