<svg xmlns="http://www.w3.org/2000/svg" viewBox="0 0 56.382 56.385">
  <path d="M26.82,56.386a1.945,1.945,0,0,1-1.685-2.928,9.006,9.006,0,0,0,.92-6.4c-.332-1.687-1.488-3.884-5.11-4.77a1.951,1.951,0,0,1-1.47-1.66,1.93,1.93,0,0,1,1.02-1.959A8.966,8.966,0,0,1,24.7,37.575a8.606,8.606,0,0,1,3.622.812,10.234,10.234,0,0,1,2.77,1.85c2.883-.6,5.73-3.406,5.59-8.3a4.638,4.638,0,0,0-.29-1.54c-1.053,2.883-2.855,4.91-4.38,4.929h-.02A1.749,1.749,0,0,1,31,35.019a2.613,2.613,0,0,1-.965-1.583c-.668-2.641-1.8-6.033-2.409-7.819a33.7,33.7,0,0,0-4.5-.283c-.455,0-.922.008-1.389.023-.425.015-.866.023-1.311.023a47.342,47.342,0,0,1-8.649-.833.835.835,0,0,1-.66-.96.822.822,0,0,1,.97-.66,47.947,47.947,0,0,0,7.47.789A15.659,15.659,0,0,0,21.146,13.7a18.032,18.032,0,0,0-2.931-6.964A34.448,34.448,0,0,0,5.1,12.587c-2.37,1.87-3.62,3.791-3.43,5.27.2,1.509,2.974,3.172,7.241,4.341a.828.828,0,0,1-.227,1.627.822.822,0,0,1-.213-.028c-3.641-1-8.061-2.8-8.44-5.729-.28-2.133,1.117-4.478,4.04-6.781a36.278,36.278,0,0,1,13.99-6.21C18.9,3.886,22.315,0,30.9,0c.212,0,.429,0,.645.007a23.093,23.093,0,0,1,9.76,2.73,28.3,28.3,0,0,1,9.6,7.97c3.722,4.882,7.481,13.394,4.25,26.22a1.952,1.952,0,0,1-3.34.83l-1.64-1.82a23.18,23.18,0,0,1-6.92,7.65.829.829,0,1,1-.99-1.33c4.38-3.269,6.95-6.8,7.64-10.5a20.337,20.337,0,0,0-1.48-12.38,22.646,22.646,0,0,0-9.211-9.9.825.825,0,0,1-.29-1.129.823.823,0,0,1,1.13-.3,24.363,24.363,0,0,1,9.869,10.63,22,22,0,0,1,1.61,13.39,13.588,13.588,0,0,1-.62,2.22l2.13,2.36a.3.3,0,0,0,.22.095.3.3,0,0,0,.29-.215c3.058-12.181-.471-20.221-3.97-24.82-5.136-6.733-12.972-9.93-18.08-10.05-.189,0-.38-.006-.568-.006a17.614,17.614,0,0,0-9.123,2.217c-.355.231-.682.463-.97.69a35.762,35.762,0,0,1,5.167-.39,25.892,25.892,0,0,1,9.253,1.589c.73.279,1.276.5,1.77.73a.828.828,0,0,1-.34,1.584A.818.818,0,0,1,36.355,8c-.628-.28-1.178-.505-1.68-.69a24.049,24.049,0,0,0-8.634-1.486,34.372,34.372,0,0,0-6.077.566,20.726,20.726,0,0,1,2.261,4.79,26.733,26.733,0,0,1,3.27-1.44,8.226,8.226,0,0,1,2.541-.549,1.963,1.963,0,0,1,1.679.71,8.026,8.026,0,0,1,0,8.88,1.867,1.867,0,0,1-1.651.709,13.319,13.319,0,0,1-5.09-1.609,17.918,17.918,0,0,1-1.59,5.829h.29c.512-.018,1.023-.026,1.518-.026a29.74,29.74,0,0,1,7.819.923,12.339,12.339,0,0,1,5.223,2.674,6.391,6.391,0,0,1,2.111,4.61,10.586,10.586,0,0,1-2.16,7,8.242,8.242,0,0,1-5.251,3.06.815.815,0,0,1-.118.009.835.835,0,0,1-.612-.269,7.918,7.918,0,0,0-5.486-2.464,7.366,7.366,0,0,0-3.454.9.285.285,0,0,0-.148.295.3.3,0,0,0,.229.255c4.462,1.107,5.91,3.906,6.34,6.06a10.653,10.653,0,0,1-1.12,7.56.274.274,0,0,0,0,.279.3.3,0,0,0,.254.153l.036,0c2.469-.343,5.568-1.833,6.31-6.98a.865.865,0,0,1,.52-.65,39.258,39.258,0,0,0,5.89-3.02.835.835,0,0,1,.438-.124.829.829,0,0,1,.432,1.533,43.5,43.5,0,0,1-5.71,2.97,9.841,9.841,0,0,1-3.091,5.92,8.75,8.75,0,0,1-4.559,1.99A1.911,1.911,0,0,1,26.82,56.386Zm2.665-30.448c.652,1.929,1.554,4.725,2.15,7.09.1.371.249.64.36.64.679-.01,2.422-1.938,3.23-5.06l-.13-.121A11.738,11.738,0,0,0,29.485,25.937Zm-1.435-15.1c-.476,0-1.956.193-5.4,1.982l.059.266a17.039,17.039,0,0,1,.321,2.974c3.191,1.617,4.569,1.792,5.014,1.792a.716.716,0,0,0,.346-.061,6.742,6.742,0,0,0,1.01-3.441v-.02a6.546,6.546,0,0,0-1.01-3.43A.686.686,0,0,0,28.05,10.835Z" transform="translate(0 0)"/>
</svg>
