<svg xmlns="http://www.w3.org/2000/svg" viewBox="0 0 46.903 56.39">
  <g transform="translate(-900.724 -4)">
    <path d="M43.174,14.349a13.61,13.61,0,0,0-3.96-7.77,21.524,21.524,0,0,0-8.14-5.02A27.832,27.832,0,0,0,17.364.369,25.546,25.546,0,0,0,3.974,7,21.08,21.08,0,0,0,.1,12.049a.833.833,0,0,0,.32,1.13.822.822,0,0,0,1.12-.32A19.516,19.516,0,0,1,5.114,8.2,23.8,23.8,0,0,1,17.634,2a26.081,26.081,0,0,1,12.89,1.12,19.748,19.748,0,0,1,7.51,4.62,11.915,11.915,0,0,1,3.5,6.82c.54,4.23-.09,7.3-1.99,9.67-1.69,2.1-4.21,3.48-7.49,4.9a.829.829,0,0,0,.66,1.52c3.65-1.59,7.04-3.37,8.98-6.61-.29,6.55-4.72,8.59-10.28,11.15a54.063,54.063,0,0,0-6.01,3.06c-2.03,1.23-3.07,4.18-4.16,7.3-.39,1.1-.79,2.24-1.24,3.31a.833.833,0,0,0,.38,1.05.842.842,0,0,0,1.15-.41c.46-1.12.87-2.28,1.26-3.4,1-2.83,1.94-5.51,3.47-6.44a55.362,55.362,0,0,1,5.84-2.97c5.8-2.67,11.29-5.19,11.26-13.4v-5.51A21.943,21.943,0,0,0,43.174,14.349Z" transform="translate(904.256 4)"/>
    <path d="M23.246,36.809a.822.822,0,0,0-1.14.24,5.854,5.854,0,0,1-4.33,2.98,11.136,11.136,0,0,1-8.94-2.84,21.313,21.313,0,0,1-5.9-10.17,18.939,18.939,0,0,0,3.86,5.65,10.645,10.645,0,0,0,5.22,2.88,9.8,9.8,0,0,0,1.87.19,11.081,11.081,0,0,0,4.45-.99c3.61-1.57,4.24-4.4,4.86-7.12.71-3.14,1.44-6.37,6.52-8.78,1.17-.56,2.37-1.07,3.48-1.53a.829.829,0,0,0-.64-1.53c-1.13.48-2.35,1-3.55,1.57-5.8,2.75-6.7,6.71-7.42,9.9-.6,2.65-1.07,4.74-3.91,5.97a8.8,8.8,0,0,1-5.33.7,8.942,8.942,0,0,1-4.4-2.45c-2.9-2.79-5.05-7.68-5.9-13.4a33.641,33.641,0,0,1,1.67-16.95.826.826,0,0,0-1.54-.6,33.991,33.991,0,0,0-2.17,12.86l.02,4.93v.09c.13,8.28,3.08,15.95,7.72,20.02a12.879,12.879,0,0,0,8.64,3.34,12.08,12.08,0,0,0,1.58-.1,7.454,7.454,0,0,0,5.52-3.72A.824.824,0,0,0,23.246,36.809Z" transform="translate(900.724 18.621)"/>
    <path d="M5.43,7.65C2.385,7.65,0,5.972,0,3.83S2.385,0,5.43,0,10.86,1.683,10.86,3.83,8.475,7.65,5.43,7.65Zm0-6c-2.008,0-3.77,1.019-3.77,2.181S3.421,6,5.43,6,9.21,4.986,9.21,3.83,7.443,1.65,5.43,1.65Z" transform="translate(919.74 16.67)"/>
  </g>
</svg>
