<svg xmlns="http://www.w3.org/2000/svg" viewBox="0 0 62.566 50.59">
  <g transform="translate(-515.724 -4)">
    <path d="M13.513,12.933H13.4a15.8,15.8,0,0,1-5.811-1.072A14.432,14.432,0,0,1,3.618,9.486,13.873,13.873,0,0,1,.432,5.7L.423,5.683A3.9,3.9,0,0,1,.193,2.7,3.908,3.908,0,0,1,5.123.193a3.863,3.863,0,0,1,2.26,1.92,6.155,6.155,0,0,0,1.21,1.371,7.318,7.318,0,0,0,4.84,1.63h.06a7.318,7.318,0,0,0,4.84-1.63,6.384,6.384,0,0,0,1.21-1.371,3.9,3.9,0,0,1,7.18.59,3.815,3.815,0,0,1-.23,2.98,13.466,13.466,0,0,1-3.1,3.726,14.43,14.43,0,0,1-4,2.423A15.8,15.8,0,0,1,13.513,12.933ZM3.9,1.843A2.049,2.049,0,0,0,1.942,3.272a2.077,2.077,0,0,0,.121,1.58,11.518,11.518,0,0,0,2.7,3.214,12.561,12.561,0,0,0,3.5,2.086,14.061,14.061,0,0,0,5.175.94h.06a14.061,14.061,0,0,0,5.175-.94,12.56,12.56,0,0,0,3.5-2.086,11.518,11.518,0,0,0,2.7-3.214,2.108,2.108,0,0,0-.91-2.79,2.042,2.042,0,0,0-.936-.226,2.072,2.072,0,0,0-1.854,1.136l-.011.019a7.619,7.619,0,0,1-1.638,1.891,9.062,9.062,0,0,1-5.99,2.07H13.4a9.062,9.062,0,0,1-5.99-2.07,7.51,7.51,0,0,1-1.65-1.91A2.1,2.1,0,0,0,3.9,1.843Z" transform="translate(521.867 37.317)"/>
    <path d="M1.35,3.17A1.349,1.349,0,0,0,2.69,1.82C2.69,1.34,2.37,0,1.35,0S0,1.34,0,1.82A1.357,1.357,0,0,0,1.35,3.17Z" transform="translate(533.98 44.85)"/>
    <path d="M1.347,2.945a1.365,1.365,0,0,0,.95-.39,2.844,2.844,0,0,0,.48-.76,1.219,1.219,0,0,0-.15-1.48C1.908-.415.738.305.4.655a1.34,1.34,0,0,0,.95,2.29Z" transform="translate(526.482 42.395)"/>
    <path d="M.653,2.545v.01a1.348,1.348,0,0,0,.95.39,1.317,1.317,0,0,0,.95-.4,1.34,1.34,0,0,0,0-1.89c-.34-.35-1.51-1.07-2.24-.34A1.234,1.234,0,0,0,.163,1.8,2.484,2.484,0,0,0,.653,2.545Z" transform="translate(541.127 42.395)"/>
    <path d="M59.086,17.75a24.187,24.187,0,0,0-7.41-6.85,1.309,1.309,0,0,0,.09-1.77c-.39-.51-1.31-1.16-4.93-1.76a62.041,62.041,0,0,0-7.52-.71c-.8-.03-1.19-.2-1.28-.35-.23-.36.26-1.54.55-2.25.48-1.16.94-2.25.44-3.15A1.758,1.758,0,0,0,37.7.05c-2.65-.44-4.67,2.12-6.46,4.39-.97,1.22-2.06,2.6-2.77,2.75a23.084,23.084,0,0,1-2.41.29c-3.44.32-7.73.71-8.75,3.14a1.544,1.544,0,0,0,.46,1.85c-5.48,4.15-8.58,9.95-8.58,16.14a16.757,16.757,0,0,0,.11,2H.926a.923.923,0,0,0-.92.88,20.9,20.9,0,0,0,3.27,11.46.922.922,0,0,0,1.53-1.03,19.138,19.138,0,0,1-2.95-9.47h36.42c-.1,2.08-.72,7.45-4.52,11.43-3.1,3.24-7.62,4.88-13.46,4.88h-.47c-5.42,0-9.71-1.42-12.77-4.21a.917.917,0,1,0-1.24,1.35c3.41,3.11,8.12,4.69,14.01,4.69h.47a25.387,25.387,0,0,0,7.51-1.04,32,32,0,0,0,8.07,1.03,30.424,30.424,0,0,0,17.19-5.16.916.916,0,0,0,.23-1.28.906.906,0,0,0-1.27-.23,28.593,28.593,0,0,1-16.15,4.83,30.28,30.28,0,0,1-5.05-.42,15.889,15.889,0,0,0,4.25-3.17c5.34-5.58,5.06-13.33,5.04-13.66a.923.923,0,0,0-.92-.88H11.146a16.787,16.787,0,0,1-.13-2c0-5.99,3.25-11.59,8.92-15.44.71.09,1.55.14,2.53.19,1.2.06,3.42.18,3.87.53a1.417,1.417,0,0,1-.25.73,16.468,16.468,0,0,1-1.16,1.66c-1.11,1.48-2.38,3.15-1.3,4.44a2.028,2.028,0,0,0,1.63.75,7.913,7.913,0,0,0,3.79-1.62.919.919,0,0,0,.26-1.27.929.929,0,0,0-1.28-.26c-2.21,1.47-2.81,1.38-2.97,1.24a7.488,7.488,0,0,1,1.33-2.17c1.14-1.5,2.31-3.05,1.56-4.41-.68-1.21-2.76-1.32-5.38-1.45a17.8,17.8,0,0,1-3.46-.39,4.126,4.126,0,0,1,2.42-1.18,34.524,34.524,0,0,1,4.7-.65,25.769,25.769,0,0,0,2.61-.32c1.37-.29,2.51-1.74,3.84-3.41,1.47-1.87,3.14-3.98,4.72-3.72a.01.01,0,0,1,.01.01,7.418,7.418,0,0,1-.52,1.49c-.54,1.3-1.15,2.78-.4,3.95a3.155,3.155,0,0,0,2.77,1.18,42.394,42.394,0,0,1,10.25,1.37c-1,.2-2.54.38-3.59.5-1.25.14-2.54.28-3.52.48-.74.15-2.3.46-2.3,1.65,0,.94.95,1.79,2.62,3.2a18.335,18.335,0,0,1,2.11,1.98,6.3,6.3,0,0,1-1.2-.28c-.89-.28-1.99-.74-3.06-1.19-2.16-.91-4.19-1.77-5.58-1.68a9.154,9.154,0,0,0-3.98,1.76.919.919,0,0,0-.26,1.27.929.929,0,0,0,1.28.26,8.1,8.1,0,0,1,3.07-1.46c.96-.06,2.98.79,4.76,1.54,3.2,1.35,5.23,2.13,6.4,1.25a1.524,1.524,0,0,0,.56-1.55,3.487,3.487,0,0,0-1.04-1.61c-.53-.55-1.21-1.13-1.87-1.69-.51-.43-1.28-1.08-1.7-1.53a34.542,34.542,0,0,1,3.92-.58c1.35-.15,2.45-.28,3.31-.44,7.08,3.74,11.3,10.03,11.3,16.87a18.048,18.048,0,0,1-5.93,13.04.916.916,0,1,0,1.26,1.33,19.851,19.851,0,0,0,6.5-14.37A19.039,19.039,0,0,0,59.086,17.75Z" transform="translate(515.724 4)"/>
  </g>
</svg>
