<svg xmlns="http://www.w3.org/2000/svg" viewBox="0 0 51.16 56.39">
  <g transform="translate(-6.72)">
    <path d="M47.563,19.14a7.481,7.481,0,0,0-7.22-7.47,6.983,6.983,0,0,0-6.92-6.15,7.2,7.2,0,0,0-2.47.45,9.837,9.837,0,0,0-3.14-4.03,9.73,9.73,0,0,0-11.66,0,9.837,9.837,0,0,0-3.14,4.03,7.2,7.2,0,0,0-2.47-.45,6.966,6.966,0,0,0-6.91,6.15,7.376,7.376,0,0,0-3.19.83.838.838,0,0,0-.35,1.12.824.824,0,0,0,1.11.35,5.835,5.835,0,0,1,2.69-.65,1.742,1.742,0,0,0,.96-.11.831.831,0,0,0,.38-.73,5.32,5.32,0,0,1,7.85-4.66.837.837,0,0,0,1.19-.48,8.073,8.073,0,0,1,15.42,0,.837.837,0,0,0,1.19.48,5.32,5.32,0,0,1,7.85,4.66.831.831,0,0,0,.38.73,1.742,1.742,0,0,0,.96.11,5.828,5.828,0,0,1,2.14,11.25.822.822,0,0,0-.5.98,6.644,6.644,0,0,1,.23,1.71,6.565,6.565,0,0,1-1.73,4.46.862.862,0,0,0-.01,1.11.847.847,0,0,0,1.24.01,8.273,8.273,0,0,0,2.15-5.58,7.9,7.9,0,0,0-.13-1.45A7.423,7.423,0,0,0,47.563,19.14Z" transform="translate(10.317)"/>
    <path d="M28.67,41.774H22.49a2.985,2.985,0,0,1-2.96-2.63,66.784,66.784,0,0,0-2-10,.8.8,0,0,1,.065-.615.824.824,0,0,1,.728-.435.827.827,0,0,1,.8.6,67.315,67.315,0,0,1,2.05,10.25,1.33,1.33,0,0,0,1.32,1.17h6.18a1.329,1.329,0,0,0,1.319-1.17,62.941,62.941,0,0,1,5.24-18.87,9.075,9.075,0,0,1-1.669-1.09,9.707,9.707,0,0,1-4.1,3.361,34.316,34.316,0,0,0-3.09,6.379.824.824,0,0,1-1.58,0,34.2,34.2,0,0,0-3.09-6.379,9.7,9.7,0,0,1-4.1-3.361,9.053,9.053,0,0,1-1.67,1.09A54.668,54.668,0,0,1,18.11,25.5a.818.818,0,0,1-.773,1.091.826.826,0,0,1-.787-.551,52.912,52.912,0,0,0-2.18-5.38,7.892,7.892,0,0,1-2.12.28,8.294,8.294,0,0,1-8.28-8.29A7.887,7.887,0,0,1,4.1,11.2,7.467,7.467,0,0,1,1.27.364.807.807,0,0,1,1.946,0,.819.819,0,0,1,2.41.145a.818.818,0,0,1,.356.528.8.8,0,0,1-.127.612,5.842,5.842,0,0,0,2.71,8.67.821.821,0,0,1,.5.98,6.631,6.631,0,0,0,11.3,6.19.808.808,0,0,1,.607-.268.834.834,0,0,1,.732.427,8.075,8.075,0,0,0,14.18,0,.834.834,0,0,1,.733-.427.808.808,0,0,1,.607.268,6.615,6.615,0,0,0,7.39,1.67.852.852,0,0,1,.314-.06.826.826,0,0,1,.316,1.59,8.176,8.176,0,0,1-3.12.61,7.877,7.877,0,0,1-2.119-.28,60.673,60.673,0,0,0-5.15,18.49A3.007,3.007,0,0,1,28.67,41.774ZM23.98,23.015c.682,1.237,1.205,2.273,1.6,3.17.4-.9.922-1.938,1.6-3.17a9.189,9.189,0,0,1-3.2,0Z" transform="translate(6.72 14.615)"/>
    <path d="M.97.005a.831.831,0,0,0-.92.72,5.6,5.6,0,0,0-.05.69,5.533,5.533,0,0,0,5.53,5.52A5.549,5.549,0,0,0,10.12,4.5a4.9,4.9,0,0,0,3.36,1.31A4.972,4.972,0,0,0,18.44.845V.815a.83.83,0,1,0-1.66.04h0a3.3,3.3,0,0,1-3.3,3.3,3.288,3.288,0,0,1-2.82-1.58.831.831,0,0,0-1.48.15,3.9,3.9,0,0,1-3.65,2.56A3.869,3.869,0,0,1,1.69.935.833.833,0,0,0,.97.005Z" transform="translate(22.93 16.305)"/>
  </g>
</svg>
