<svg xmlns="http://www.w3.org/2000/svg" viewBox="0 0 164 721">
  <path d="M26.19,721H2.37V648.51H161.84v35.55H26.19ZM2.369,622.34h0V589.57l33.66-5.37V560.57L2.37,555.01V521.44l159.47,30.39V592.35L2.37,622.34ZM57.1,563.75v17.08l62.211-8.54Zm104.74-68.479H2.37V459.72H161.84v35.55ZM61.23,430.031H47.45A69.827,69.827,0,0,1,27.47,427.4a42.26,42.26,0,0,1-15.06-7.889,28.771,28.771,0,0,1-5.428-6.184,36.43,36.43,0,0,1-3.878-8.02C1.044,399.374,0,392.125,0,383.76c0-8.7,1.143-16.252,3.4-22.446a37.643,37.643,0,0,1,4.247-8.392,30.994,30.994,0,0,1,5.946-6.5,46.884,46.884,0,0,1,16.785-8.19A86.349,86.349,0,0,1,53.16,335.5H110.65a88.205,88.205,0,0,1,23.133,2.73,44.892,44.892,0,0,1,16.637,8.19,30.218,30.218,0,0,1,5.94,6.429,37.131,37.131,0,0,1,4.244,8.367c2.254,6.2,3.4,13.781,3.4,22.544,0,8.367-1.01,15.617-3,21.546a36.936,36.936,0,0,1-3.753,8.02,28.477,28.477,0,0,1-5.256,6.184,39.478,39.478,0,0,1-14.518,7.889,66.57,66.57,0,0,1-19.543,2.631H104.15V395.28H120.1c6.122,0,10.89-.67,14.17-1.99a7,7,0,0,0,3.7-3.374,13.454,13.454,0,0,0,1.232-6.156,13.2,13.2,0,0,0-1.333-6.255,8.229,8.229,0,0,0-3.987-3.675c-3.4-1.586-8.236-2.39-14.37-2.39H44.5c-6.267,0-11.169.8-14.569,2.39a8.377,8.377,0,0,0-3.69,3.772,13.861,13.861,0,0,0-1.23,6.157,12.9,12.9,0,0,0,1.23,6.007,7.03,7.03,0,0,0,3.69,3.323c3.393,1.453,8.295,2.19,14.569,2.19H61.23v34.75ZM26.19,311.61H2.37V238.92H161.84v72.29H137.82V274.47H98.25v28H73.83v-28H26.19Zm89.38-99.76c-8.492,0-15.794-1.035-21.7-3.076a35.087,35.087,0,0,1-7.936-3.847,26.8,26.8,0,0,1-5.991-5.387,40.89,40.89,0,0,1-7.389-14.6A71.076,71.076,0,0,1,70.09,165.38v-14.3H2.37V115.53H161.84v54.02a52.642,52.642,0,0,1-3,18.571,32.7,32.7,0,0,1-9,13.209,38.572,38.572,0,0,1-14.475,7.889A67.813,67.813,0,0,1,115.57,211.85ZM94.7,151.08v11.91a21.147,21.147,0,0,0,1.23,7.75,9.1,9.1,0,0,0,3.69,4.57c3.265,2.11,8.83,3.18,16.54,3.18,7.045,0,12.345-1,15.75-2.98a9.169,9.169,0,0,0,3.839-4.671,21.781,21.781,0,0,0,1.281-8.039V151.08ZM40.17,88.38a42.392,42.392,0,0,1-10.735-1.341A39.4,39.4,0,0,1,19.69,83.02a36.866,36.866,0,0,1-8.123-6.255A39.609,39.609,0,0,1,5.32,68.32,40.5,40.5,0,0,1,1.329,58.046,50.3,50.3,0,0,1,0,46.28,61.215,61.215,0,0,1,3.005,26.171a35.34,35.34,0,0,1,9-14.252A41.109,41.109,0,0,1,27.761,3.376,87.142,87.142,0,0,1,50.6,0L55.13,30.39a89.751,89.751,0,0,0-13.044.99,31.012,31.012,0,0,0-8.806,2.58A12.869,12.869,0,0,0,28.4,38.385a11.442,11.442,0,0,0-1.622,6.1c0,2.967.977,5.223,2.9,6.706s4.856,2.235,8.707,2.235a32.64,32.64,0,0,0,8.616-1.094A25.949,25.949,0,0,0,54.34,49.06C58.8,46.282,63.631,41.8,68.71,35.75l12.01-13.9a84.776,84.776,0,0,1,8.911-9.189,64.217,64.217,0,0,1,9.4-6.9,41.4,41.4,0,0,1,10.734-4.171A53.852,53.852,0,0,1,122.26.2a49.428,49.428,0,0,1,17.774,2.979A34.156,34.156,0,0,1,153.18,12.12a39.912,39.912,0,0,1,8.114,14.345A60.821,60.821,0,0,1,164,45.28c0,7.581-1.109,14.031-3.3,19.17a27.188,27.188,0,0,1-4.121,6.829,23.837,23.837,0,0,1-5.773,4.991,54.752,54.752,0,0,1-14.617,6.4A73.9,73.9,0,0,1,118.72,85.2L114.98,54.62c8.243-.269,14.2-1.07,17.719-2.38a7.692,7.692,0,0,0,4.132-2.935,9.157,9.157,0,0,0,1.379-5.215,8.135,8.135,0,0,0-3.94-7.15,15.456,15.456,0,0,0-8.46-2.38,24.623,24.623,0,0,0-13.59,3.57,71.933,71.933,0,0,0-12.6,11.92L88.01,63.36A96.313,96.313,0,0,1,77.671,73.934a72.415,72.415,0,0,1-10.931,7.9,46.145,46.145,0,0,1-12.254,4.914A60,60,0,0,1,40.17,88.38Z" transform="translate(0 0)"/>
</svg>
