<svg xmlns="http://www.w3.org/2000/svg" viewBox="0 0 1131.997 144">
  <path d="M1095.4,144a52.763,52.763,0,0,1-17.477-2.634,30.614,30.614,0,0,1-12.384-7.906,36.215,36.215,0,0,1-7.426-13.833,77.253,77.253,0,0,1-2.934-20.058l26.41-3.97a80.048,80.048,0,0,0,.865,11.451,27.415,27.415,0,0,0,2.245,7.738,11.223,11.223,0,0,0,3.84,4.276,9.876,9.876,0,0,0,5.31,1.425,6.892,6.892,0,0,0,5.827-2.55c1.289-1.692,1.943-4.266,1.943-7.65a25.363,25.363,0,0,0-3.8-14c-2.419-3.919-6.312-8.165-11.57-12.62l-12.08-10.54a64.465,64.465,0,0,1-13.99-16.08,36.547,36.547,0,0,1-3.622-9.42,47.809,47.809,0,0,1-1.207-10.98,43.768,43.768,0,0,1,2.589-15.6,30,30,0,0,1,7.771-11.541,34.609,34.609,0,0,1,12.473-7.133A52.35,52.35,0,0,1,1094.537,0c6.588,0,12.193.974,16.66,2.9a23.587,23.587,0,0,1,5.933,3.619,20.888,20.888,0,0,1,4.337,5.066,48.4,48.4,0,0,1,5.573,12.841,65.452,65.452,0,0,1,2.2,15.339l-26.59,3.29c-.229-7.228-.924-12.462-2.07-15.56a6.7,6.7,0,0,0-2.542-3.631,7.913,7.913,0,0,0-4.537-1.209,7.067,7.067,0,0,0-6.21,3.45,13.715,13.715,0,0,0-2.07,7.44,21.773,21.773,0,0,0,3.1,11.93,63.223,63.223,0,0,0,10.36,11.06l11.57,10.2a83.648,83.648,0,0,1,9.2,9.077,63.747,63.747,0,0,1,6.863,9.594,40.915,40.915,0,0,1,4.266,10.762A53.237,53.237,0,0,1,1132,108.74a37.588,37.588,0,0,1-1.164,9.42,34.552,34.552,0,0,1-3.5,8.55,32.28,32.28,0,0,1-5.437,7.135,34.549,34.549,0,0,1-7.333,5.485,35.039,35.039,0,0,1-8.94,3.505A43.365,43.365,0,0,1,1095.4,144Zm-322.72,0a57.837,57.837,0,0,1-19.376-2.9,29.374,29.374,0,0,1-12.9-8.685,39.322,39.322,0,0,1-7.251-14.521,75.1,75.1,0,0,1-2.417-20.049V45.81a74.154,74.154,0,0,1,2.417-19.965A37.685,37.685,0,0,1,740.4,11.58a29.372,29.372,0,0,1,12.9-8.685A57.837,57.837,0,0,1,772.677,0a58.539,58.539,0,0,1,19.511,2.895,33,33,0,0,1,7.293,3.619,26.831,26.831,0,0,1,5.656,5.066,38.3,38.3,0,0,1,7.38,14.351,72.553,72.553,0,0,1,2.46,19.879V97.85a73.855,73.855,0,0,1-2.46,20.049,39.061,39.061,0,0,1-7.38,14.521,26.831,26.831,0,0,1-5.656,5.066,33,33,0,0,1-7.293,3.619A58.539,58.539,0,0,1,772.677,144Zm0-122.22a10.79,10.79,0,0,0-5.175,1.125,7.124,7.124,0,0,0-3.1,3.375c-1.38,2.881-2.08,6.895-2.08,11.93v67.41c0,5.034.639,9.108,1.9,12.109a6.5,6.5,0,0,0,3.067,3.24,11.884,11.884,0,0,0,5.393,1.08,12.18,12.18,0,0,0,5.442-1.08,6.9,6.9,0,0,0,3.2-3.24c1.373-2.986,2.07-7.06,2.07-12.109V38.21c0-5.159-.7-9.234-2.07-12.11a6.9,6.9,0,0,0-3.2-3.24A12.18,12.18,0,0,0,772.677,21.78ZM153.537,144a57.847,57.847,0,0,1-19.378-2.9,29.368,29.368,0,0,1-12.905-8.685A39.325,39.325,0,0,1,114,117.9a75.085,75.085,0,0,1-2.417-20.049V45.81A74.142,74.142,0,0,1,114,25.845a37.69,37.69,0,0,1,7.251-14.265,29.37,29.37,0,0,1,12.905-8.685A57.847,57.847,0,0,1,153.537,0a58.535,58.535,0,0,1,19.508,2.895,29.354,29.354,0,0,1,12.949,8.685,38.3,38.3,0,0,1,7.38,14.351,72.553,72.553,0,0,1,2.46,19.879V97.85a73.855,73.855,0,0,1-2.46,20.049,39.064,39.064,0,0,1-7.38,14.521,29.354,29.354,0,0,1-12.949,8.685A58.534,58.534,0,0,1,153.537,144Zm0-122.22a10.8,10.8,0,0,0-5.179,1.125,7.124,7.124,0,0,0-3.107,3.375c-1.375,2.868-2.072,6.882-2.072,11.93v67.41c0,5.05.639,9.125,1.9,12.109a6.484,6.484,0,0,0,3.064,3.24,11.891,11.891,0,0,0,5.4,1.08,12.168,12.168,0,0,0,5.438-1.08,6.868,6.868,0,0,0,3.193-3.24c1.375-2.985,2.072-7.059,2.072-12.109V38.21c0-5.16-.7-9.235-2.072-12.11a6.868,6.868,0,0,0-3.193-3.24A12.169,12.169,0,0,0,153.537,21.78Zm886.83,120.151h-31.42l-20.2-61.89-3.281,5.53v56.36h-30.9V1.9h30.9V59.12l23.48-57.22h30.21l-25.9,63.27,27.11,76.76Zm-110.94,0h-31.94l-15.36-62.75h-8.81v62.75h-30.9V1.9h38.5a89.407,89.407,0,0,1,20.155,2.032,42.484,42.484,0,0,1,14.545,6.1,24.686,24.686,0,0,1,8.8,11.278A46.958,46.958,0,0,1,927.357,38.9c0,9.293-1.221,16.8-3.63,22.3a22.958,22.958,0,0,1-5.173,7.387,31.077,31.077,0,0,1-8.286,5.573l19.16,67.77ZM873.317,22.65V61.37h8.63a22.779,22.779,0,0,0,7.9-1.209,10.927,10.927,0,0,0,5.05-3.631,17.356,17.356,0,0,0,2.849-6.224,35.27,35.27,0,0,0,.951-8.646,35.5,35.5,0,0,0-.863-8.3,16.316,16.316,0,0,0-2.587-5.874,10.533,10.533,0,0,0-4.711-3.631,19.263,19.263,0,0,0-7.209-1.209h-10.01ZM83.558,141.931H52.483V80.73H30.9v61.2H0V1.9H30.9V58.6h21.58V1.9H83.558V141.93Zm608.963,0H665.589L653.677,57.39l-11.221,84.54H615.179L598.26,1.9H624.5l8.287,81.6L643.319,2.08h20.544l11.049,80.9L683.372,1.9h25.895L692.521,141.93Zm-380.684,0H284.9L272.994,57.39l-11.221,84.54H234.495L217.576,1.9h26.241L252.1,83.5,262.635,2.08h20.543l11.049,80.9L302.687,1.9h25.9L311.837,141.93Zm197.484,0H478.246V24.9H457.183V1.9H530.21v23H509.321Zm-73.161,0h-30.9V1.9h30.9Z" transform="translate(0)" fill="rgba(255,255,255,0.1)"/>
</svg>
