<svg xmlns="http://www.w3.org/2000/svg" viewBox="0 0 1135.997 139">
  <path id="Fill_450" data-name="Fill 450" d="M429.766,139h0c-3.4-1.414-7.515-4.23-12.231-8.37a60.442,60.442,0,0,1-11.38-12.62,14.631,14.631,0,0,1-2.418.14,47.841,47.841,0,0,1-15.967-2.376,24.215,24.215,0,0,1-10.633-7.124,32.2,32.2,0,0,1-5.974-11.916,61.415,61.415,0,0,1-1.991-16.454V37.59a60.614,60.614,0,0,1,1.991-16.382A30.918,30.918,0,0,1,377.137,9.5a24.216,24.216,0,0,1,10.633-7.124A47.841,47.841,0,0,1,403.736,0a48.4,48.4,0,0,1,16.073,2.376A24.2,24.2,0,0,1,430.478,9.5a31.364,31.364,0,0,1,6.08,11.776,59.333,59.333,0,0,1,2.027,16.314V80.28a67.8,67.8,0,0,1-.924,11.6,42.356,42.356,0,0,1-2.774,9.542,25.315,25.315,0,0,1-4.658,7.3,24.824,24.824,0,0,1-6.864,5.183c4.8,5.164,8.776,8.552,11.806,10.069L429.767,139ZM403.736,17.87c-3.584,0-5.929,1.194-6.97,3.55-1.038,2.258-1.564,5.6-1.564,9.93V86.66a26.048,26.048,0,0,0,1.564,9.93,5.331,5.331,0,0,0,2.525,2.664,9.825,9.825,0,0,0,4.445.886,10.053,10.053,0,0,0,4.48-.886,5.65,5.65,0,0,0,2.632-2.664,24.107,24.107,0,0,0,1.706-9.93V31.35c0-4.24-.574-7.581-1.706-9.93S407.319,17.87,403.736,17.87Zm627.331,100.28a43.633,43.633,0,0,1-14.4-2.161,25.208,25.208,0,0,1-10.2-6.489,29.684,29.684,0,0,1-6.119-11.346A63.081,63.081,0,0,1,997.927,81.7l21.77-3.26c.09,7.257.951,12.552,2.56,15.739a8.168,8.168,0,0,0,7.54,4.68,5.685,5.685,0,0,0,4.8-2.092c1.064-1.39,1.6-3.5,1.6-6.278A20.8,20.8,0,0,0,1033.067,79a46.726,46.726,0,0,0-9.53-10.35L1013.577,60a52.872,52.872,0,0,1-11.52-13.19,29.906,29.906,0,0,1-2.993-7.732,38.957,38.957,0,0,1-1-9.008,35.749,35.749,0,0,1,2.136-12.8,24.637,24.637,0,0,1,6.4-9.469,28.52,28.52,0,0,1,10.274-5.85A43.318,43.318,0,0,1,1030.357,0a35.1,35.1,0,0,1,13.732,2.376,17.911,17.911,0,0,1,8.459,7.124,39.579,39.579,0,0,1,4.592,10.536,53.7,53.7,0,0,1,1.817,12.583l-21.91,2.7c-.189-5.925-.764-10.221-1.71-12.769a5.512,5.512,0,0,0-2.094-2.976,6.522,6.522,0,0,0-3.736-1,5.819,5.819,0,0,0-5.12,2.84,11.208,11.208,0,0,0-1.71,6.1,17.777,17.777,0,0,0,2.56,9.779,51,51,0,0,0,8.54,9.08l9.53,8.37a59.7,59.7,0,0,1,13.23,15.321,33.333,33.333,0,0,1,3.519,8.828,43.528,43.528,0,0,1,1.171,10.321,30.7,30.7,0,0,1-.96,7.728,28.482,28.482,0,0,1-2.88,7.022,26.648,26.648,0,0,1-4.481,5.85,28.3,28.3,0,0,1-6.049,4.5,28.83,28.83,0,0,1-7.358,2.875A35.884,35.884,0,0,1,1031.067,118.15Zm-174.88,0a47.846,47.846,0,0,1-15.967-2.376,24.216,24.216,0,0,1-10.634-7.124,32.172,32.172,0,0,1-5.971-11.916,61.483,61.483,0,0,1-1.988-16.454V37.59a60.681,60.681,0,0,1,1.988-16.382A30.89,30.89,0,0,1,829.587,9.5a24.216,24.216,0,0,1,10.634-7.124A47.846,47.846,0,0,1,856.187,0a48.4,48.4,0,0,1,16.073,2.376A24.2,24.2,0,0,1,882.927,9.5a31.336,31.336,0,0,1,6.084,11.776,59.332,59.332,0,0,1,2.026,16.314V80.28a60.4,60.4,0,0,1-2.026,16.454,31.957,31.957,0,0,1-6.084,11.916,24.2,24.2,0,0,1-10.666,7.124A48.4,48.4,0,0,1,856.187,118.15Zm0-100.28a8.941,8.941,0,0,0-4.266.922,5.862,5.862,0,0,0-2.564,2.768c-1.128,2.355-1.7,5.649-1.7,9.789V86.66a26.128,26.128,0,0,0,1.56,9.93,5.321,5.321,0,0,0,2.525,2.664,9.83,9.83,0,0,0,4.445.886c3.595,0,5.987-1.195,7.11-3.551a24.056,24.056,0,0,0,1.71-9.93V31.35c0-4.24-.575-7.581-1.71-9.93S859.777,17.87,856.187,17.87ZM653.242,118.15a43.652,43.652,0,0,1-14.4-2.161,25.24,25.24,0,0,1-10.206-6.489,29.659,29.659,0,0,1-6.116-11.346A63.119,63.119,0,0,1,620.1,81.7l21.763-3.26c.094,7.25.955,12.545,2.561,15.739a9.234,9.234,0,0,0,3.164,3.51,8.158,8.158,0,0,0,4.374,1.17,5.688,5.688,0,0,0,4.8-2.092c1.062-1.389,1.6-3.5,1.6-6.278A20.758,20.758,0,0,0,655.233,79a46.5,46.5,0,0,0-9.53-10.35L635.746,60a52.908,52.908,0,0,1-11.521-13.19,29.914,29.914,0,0,1-2.987-7.732,39.049,39.049,0,0,1-1-9.008,35.794,35.794,0,0,1,2.133-12.8,24.622,24.622,0,0,1,6.4-9.469,28.564,28.564,0,0,1,10.278-5.85A43.322,43.322,0,0,1,652.531,0a35.081,35.081,0,0,1,13.726,2.376A17.945,17.945,0,0,1,674.721,9.5a39.677,39.677,0,0,1,4.587,10.536,53.575,53.575,0,0,1,1.813,12.583l-21.905,2.7c-.189-5.926-.762-10.222-1.706-12.769-.853-2.635-2.815-3.971-5.833-3.971a5.825,5.825,0,0,0-5.12,2.84,11.222,11.222,0,0,0-1.707,6.1A17.731,17.731,0,0,0,647.41,37.3a51.1,51.1,0,0,0,8.535,9.08l9.53,8.37A59.67,59.67,0,0,1,678.7,70.07a33.374,33.374,0,0,1,3.521,8.828A43.457,43.457,0,0,1,683.4,89.22a30.68,30.68,0,0,1-.96,7.728,28.48,28.48,0,0,1-2.88,7.022,27.089,27.089,0,0,1-10.526,10.35,28.874,28.874,0,0,1-7.362,2.875A35.874,35.874,0,0,1,653.242,118.15Zm-158.764,0a59.512,59.512,0,0,1-11.593-1.027,31.568,31.568,0,0,1-8.89-3.083,23.518,23.518,0,0,1-10.668-12.34c-1.983-5.463-2.988-12.478-2.988-20.85V1.56h25.177V84.68a29.588,29.588,0,0,0,1.707,11.06,6.5,6.5,0,0,0,2.738,3.082,9.1,9.1,0,0,0,4.516,1.027,8.893,8.893,0,0,0,4.48-1.027,6.187,6.187,0,0,0,2.631-3.082A29.573,29.573,0,0,0,503.3,84.68V1.56h25.319V80.85c0,8.371-1.053,15.387-3.13,20.85a23.515,23.515,0,0,1-10.668,12.34,30.555,30.555,0,0,1-8.783,3.083A58.965,58.965,0,0,1,494.478,118.15Zm-334.263-1.7h-23.47L132.9,92.2H115.978L112,116.45H87.956L109.718,1.56h29.018l21.478,114.89ZM124.369,32.2l-6.116,44.82h12.233L124.369,32.2Zm851.858,84.251H959.017l-23.61-59.57v59.57h-21.76V1.56h17.92l23.611,55.32V1.56h21.05V116.45Zm-907.383,0h-25.6V66.24H25.462v50.21H0V1.56H25.462V48.08h17.78V1.56h25.6V116.45Zm1043.542,0h-22.62V94.47h22.62v21.979Zm-313.49,0h-25.46V1.56H798.9Zm-60.071,0h-25.6V20.43H695.868V1.56h60.168V20.43H738.825Zm-134.837,0H551.928V1.56H603.7V18.87H577.389V47.38h20.056V64.96H577.389V99.29h26.6v17.159Zm-295.43,0H256.5V1.56h51.777V18.87H281.959V47.38h20.057V64.96H281.959V99.29h26.6v17.159Zm-91.8,0H189.876L169.109,1.56h21.763l12.375,78.01L214.768,1.56h23.044Zm894.777-30.21h-21.05V67.94a67.582,67.582,0,0,0,16.35-17.87,41.981,41.981,0,0,0,4.7-10.071A35.319,35.319,0,0,0,1113.1,29.65c0-3.3-.634-5.8-1.883-7.447a6.68,6.68,0,0,0-5.656-2.482,7.356,7.356,0,0,0-5.4,1.98,7.866,7.866,0,0,0-1.851,5.53,22.082,22.082,0,0,0,1.71,7.809l-20.91,4.82a40.582,40.582,0,0,1-2.42-13.33,30.179,30.179,0,0,1,1.92-11.1,22.122,22.122,0,0,1,5.76-8.336,24.951,24.951,0,0,1,9.279-5.315A40.422,40.422,0,0,1,1106.127,0a39.205,39.205,0,0,1,12.622,1.881,25.233,25.233,0,0,1,9.427,5.639,23.783,23.783,0,0,1,5.868,9.112A35.969,35.969,0,0,1,1136,28.94a46.477,46.477,0,0,1-6.26,23.54,58.664,58.664,0,0,1-7.679,10.425,76.3,76.3,0,0,1-10.521,9.435v13.9Z" transform="translate(0 0)" fill="rgba(255,255,255,0.4)"/>
</svg>
